<svg xmlns="http://www.w3.org/2000/svg" version="1.1" xmlns:xlink="http://www.w3.org/1999/xlink" xmlns:svgjs="http://svgjs.dev/svgjs" width="2000" height="1999" viewBox="0 0 2000 1999"><g transform="matrix(1,0,0,1,-0.431486880466764,-0.4312711370263287)"><svg viewBox="0 0 343 343" data-background-color="#1b4571" preserveAspectRatio="xMidYMid meet" height="1999" width="2000" xmlns="http://www.w3.org/2000/svg" xmlns:xlink="http://www.w3.org/1999/xlink"><g id="tight-bounds" transform="matrix(1,0,0,1,0.0740000000000407,0.07400000000001228)"><svg viewBox="0 0 342.85155851775386 342.85155851775386" height="342.85155851775386" width="342.85155851775386"><g><svg></svg></g><g><svg viewBox="0 0 342.85155851775386 342.85155851775386" height="342.85155851775386" width="342.85155851775386"><g><path d="M0 171.426c0-94.676 76.75-171.426 171.426-171.426 94.676 0 171.426 76.75 171.426 171.426 0 94.676-76.75 171.426-171.426 171.426-94.676 0-171.426-76.75-171.426-171.426zM171.426 332.655c89.045 0 161.23-72.185 161.229-161.229 0-89.045-72.185-161.23-161.229-161.23-89.045 0-161.23 72.185-161.23 161.23 0 89.045 72.185 161.23 161.23 161.229z" data-fill-palette-color="tertiary" fill="#ffffff" stroke="transparent"></path><ellipse rx="164.56874808852186" ry="164.56874808852186" cx="171.42577925887693" cy="171.42577925887693" fill="#ffffff" stroke="transparent" stroke-width="0" fill-opacity="1" data-fill-palette-color="tertiary"></ellipse></g><g transform="matrix(1,0,0,1,64.84655864529837,82.02072209218886)"><svg viewBox="0 0 213.1584412271571 178.81011433337613" height="178.81011433337613" width="213.1584412271571"><g><svg viewBox="0 0 213.1584412271571 178.81011433337613" height="178.81011433337613" width="213.1584412271571"><g><svg viewBox="0 0 213.1584412271571 178.81011433337613" height="178.81011433337613" width="213.1584412271571"><g><svg viewBox="0 0 213.1584412271571 178.81011433337613" height="178.81011433337613" width="213.1584412271571"><g><svg viewBox="0 0 213.1584412271571 178.81011433337613" height="178.81011433337613" width="213.1584412271571"><g><svg viewBox="0 0 213.1584412271571 113.06375977727521" height="113.06375977727521" width="213.1584412271571"><g transform="matrix(1,0,0,1,0,0)"><svg width="213.1584412271571" viewBox="2.200000047683716 -33.5 64.10000610351562 34" height="113.06375977727521" data-palette-color="#1b4571"><path d="M18.9 0L2.2 0 2.2-0.8 6.45-2.85 6.45-30.15 2.2-32.2 2.2-33 19.25-33Q25.2-33 29.35-31.05 33.5-29.1 35.68-25.7 37.85-22.3 37.85-18L37.85-18Q37.85-14.1 36.43-10.8 35-7.5 32.45-5.1 29.9-2.7 26.45-1.35 23 0 18.9 0L18.9 0ZM17.2-30.25L17.2-30.25 14-30.25 14-2.75 17.9-2.75Q23.7-2.75 26.85-6.48 30-10.2 30-16.45L30-16.45Q30-22.75 26.78-26.5 23.55-30.25 17.2-30.25ZM53.65 0.5L53.65 0.5Q50.35 0.5 47.82-0.18 45.3-0.85 42.95-2.05L42.95-2.05 42.45-10.5 43.35-10.5 46.9-4.35Q48.25-3.25 49.82-2.65 51.4-2.05 53.05-2.05L53.05-2.05Q55.75-2.05 57.45-3.33 59.15-4.6 59.15-7.1L59.15-7.1Q59.15-8.8 58.37-9.9 57.6-11 55.8-11.98 54-12.95 50.85-14.35L50.85-14.35Q47.3-15.9 45.4-18.05 43.5-20.2 43.5-23.4L43.5-23.4Q43.5-25.4 44.52-27.23 45.55-29.05 47.27-30.48 49-31.9 51.12-32.7 53.25-33.5 55.5-33.5L55.5-33.5Q58.05-33.5 60.4-32.9 62.75-32.3 64.75-31.2L64.75-31.2 65.25-23.2 64.4-23.2 60.9-28.85Q59.6-29.85 58.37-30.38 57.15-30.9 55.6-30.9L55.6-30.9Q53.55-30.9 52.2-29.6 50.85-28.3 50.85-26.15L50.85-26.15Q50.85-24.1 52.32-22.78 53.8-21.45 57.45-19.8L57.45-19.8Q62-17.7 64.15-15.5 66.3-13.3 66.3-9.7L66.3-9.7Q66.3-6.5 64.45-4.2 62.6-1.9 59.7-0.7 56.8 0.5 53.65 0.5Z" opacity="1" transform="matrix(1,0,0,1,0,0)" fill="#1b4571" class="undefined-text-0" data-fill-palette-color="quaternary" id="text-0"></path></svg></g></svg></g><g transform="matrix(1,0,0,1,0,139.75539993045524)"><svg viewBox="0 0 213.1584412271571 39.05471440292091" height="39.05471440292091" width="213.1584412271571"><g transform="matrix(1,0,0,1,0,0)"><svg width="213.1584412271571" viewBox="1.75 -36.95000076293945 204.38999938964844 37.45000076293945" height="39.05471440292091" data-palette-color="#1b4571"><path d="M45.9-35.1L45.9-35.1Q46.35-35.1 46.65-34.88 46.95-34.65 46.95-34.15L46.95-34.15Q46.95-33.95 46.85-33.65L46.85-33.65 35.4-0.65Q35.3-0.35 35.02-0.18 34.75 0 34.5 0L34.5 0Q34.15 0 33.88-0.13 33.6-0.25 33.5-0.6L33.5-0.6 24.15-24.2 24.55-24.2 15.2-0.6Q15.05-0.25 14.78-0.13 14.5 0 14.15 0L14.15 0Q13.9 0 13.65-0.18 13.4-0.35 13.3-0.65L13.3-0.65 1.85-33.65Q1.75-33.95 1.75-34.1L1.75-34.1Q1.75-34.6 2.13-34.85 2.5-35.1 2.85-35.1L2.85-35.1Q3.15-35.1 3.43-34.93 3.7-34.75 3.8-34.45L3.8-34.45 14.55-3.4 14.2-3.35 23.4-26.6Q23.5-26.9 23.75-27.08 24-27.25 24.35-27.25L24.35-27.25Q24.65-27.25 24.93-27.08 25.2-26.9 25.3-26.6L25.3-26.6 34.6-3.2 34.15-3.15 44.9-34.45Q45-34.75 45.25-34.93 45.5-35.1 45.9-35.1ZM63.15 0.5L63.15 0.5Q59.4 0.5 56.52-1.1 53.65-2.7 52-5.63 50.35-8.55 50.35-12.5L50.35-12.5Q50.35-16.7 51.97-19.65 53.6-22.6 56.17-24.18 58.75-25.75 61.65-25.75L61.65-25.75Q63.75-25.75 65.75-25.08 67.75-24.4 69.32-22.98 70.9-21.55 71.87-19.43 72.85-17.3 72.95-14.35L72.95-14.35Q72.95-13.95 72.65-13.63 72.35-13.3 71.95-13.3L71.95-13.3 51.55-13.3 51.25-15.2 71.4-15.2 70.9-14.75 70.9-15.65Q70.65-18.3 69.22-20.1 67.8-21.9 65.8-22.83 63.8-23.75 61.65-23.75L61.65-23.75Q60.15-23.75 58.5-23.08 56.85-22.4 55.45-21.03 54.05-19.65 53.17-17.55 52.3-15.45 52.3-12.65L52.3-12.65Q52.3-9.6 53.52-7.05 54.75-4.5 57.17-2.95 59.6-1.4 63.15-1.4L63.15-1.4Q64.85-1.4 66.35-1.98 67.85-2.55 69.05-3.5 70.25-4.45 71-5.55L71-5.55Q71.4-6 71.85-6L71.85-6Q72.2-6 72.45-5.73 72.7-5.45 72.7-5.1L72.7-5.1Q72.7-4.75 72.5-4.5L72.5-4.5Q70.95-2.5 68.52-1 66.1 0.5 63.15 0.5ZM91.1-25.75L91.1-25.75Q94.45-25.75 97.05-24.08 99.65-22.4 101.17-19.48 102.7-16.55 102.7-12.75L102.7-12.75Q102.7-9 101.17-6 99.65-3 97.02-1.25 94.4 0.5 91.1 0.5L91.1 0.5Q89.45 0.5 87.92 0 86.4-0.5 85.1-1.43 83.8-2.35 82.72-3.68 81.65-5 80.85-6.65L80.85-6.65 81.5-7.35 81.5-1Q81.5-0.6 81.22-0.3 80.95 0 80.5 0L80.5 0Q80.1 0 79.8-0.3 79.5-0.6 79.5-1L79.5-1 79.5-35.95Q79.5-36.35 79.77-36.65 80.05-36.95 80.5-36.95L80.5-36.95Q80.95-36.95 81.22-36.65 81.5-36.35 81.5-35.95L81.5-35.95 81.5-17.85 80.85-18.2Q81.55-20.05 82.6-21.45 83.65-22.85 85-23.8 86.35-24.75 87.9-25.25 89.45-25.75 91.1-25.75ZM91-23.85L91-23.85Q88.15-23.85 85.97-22.43 83.8-21 82.55-18.5 81.3-16 81.3-12.75L81.3-12.75Q81.3-9.5 82.55-6.93 83.8-4.35 85.97-2.88 88.15-1.4 91-1.4L91-1.4Q93.8-1.4 95.97-2.9 98.15-4.4 99.42-6.98 100.7-9.55 100.7-12.75L100.7-12.75Q100.7-16 99.42-18.5 98.15-21 95.97-22.43 93.8-23.85 91-23.85ZM124.59-35L137.59-35Q141.34-35 144.09-33.58 146.84-32.15 148.62-29.68 150.39-27.2 151.24-24.05 152.09-20.9 152.09-17.5L152.09-17.5Q152.09-12.7 150.57-8.72 149.04-4.75 145.84-2.38 142.64 0 137.59 0L137.59 0 124.59 0Q124.19 0 123.89-0.3 123.59-0.6 123.59-1L123.59-1 123.59-34Q123.59-34.4 123.89-34.7 124.19-35 124.59-35L124.59-35ZM125.39-2L137.09-2Q141.69-2 144.52-4.08 147.34-6.15 148.67-9.68 149.99-13.2 149.99-17.5L149.99-17.5Q149.99-20.55 149.27-23.35 148.54-26.15 146.99-28.33 145.44-30.5 142.99-31.75 140.54-33 137.09-33L137.09-33 125.39-33 125.69-33.4 125.69-1.55 125.39-2ZM170.19 0.5L170.19 0.5Q166.44 0.5 163.56-1.1 160.69-2.7 159.04-5.63 157.39-8.55 157.39-12.5L157.39-12.5Q157.39-16.7 159.01-19.65 160.64-22.6 163.21-24.18 165.79-25.75 168.69-25.75L168.69-25.75Q170.79-25.75 172.79-25.08 174.79-24.4 176.36-22.98 177.94-21.55 178.91-19.43 179.89-17.3 179.99-14.35L179.99-14.35Q179.99-13.95 179.69-13.63 179.39-13.3 178.99-13.3L178.99-13.3 158.59-13.3 158.29-15.2 178.44-15.2 177.94-14.75 177.94-15.65Q177.69-18.3 176.26-20.1 174.84-21.9 172.84-22.83 170.84-23.75 168.69-23.75L168.69-23.75Q167.19-23.75 165.54-23.08 163.89-22.4 162.49-21.03 161.09-19.65 160.21-17.55 159.34-15.45 159.34-12.65L159.34-12.65Q159.34-9.6 160.56-7.05 161.79-4.5 164.21-2.95 166.64-1.4 170.19-1.4L170.19-1.4Q171.89-1.4 173.39-1.98 174.89-2.55 176.09-3.5 177.29-4.45 178.04-5.55L178.04-5.55Q178.44-6 178.89-6L178.89-6Q179.24-6 179.49-5.73 179.74-5.45 179.74-5.1L179.74-5.1Q179.74-4.75 179.54-4.5L179.54-4.5Q177.99-2.5 175.56-1 173.14 0.5 170.19 0.5ZM185.09-25.85L185.09-25.85Q185.34-25.85 185.61-25.68 185.89-25.5 185.99-25.2L185.99-25.2 195.24-3.05 194.74-2.7 204.14-25.2Q204.39-25.85 205.19-25.85L205.19-25.85Q205.44-25.85 205.79-25.65 206.14-25.45 206.14-25.05L206.14-25.05Q206.14-24.8 206.09-24.68 206.04-24.55 205.99-24.45L205.99-24.45 196.04-0.65Q195.79 0 195.09 0L195.09 0Q194.79 0 194.51-0.18 194.24-0.35 194.14-0.65L194.14-0.65 184.14-24.4Q184.09-24.5 184.06-24.63 184.04-24.75 184.04-24.85L184.04-24.85Q184.04-25.25 184.29-25.55 184.54-25.85 185.09-25.85Z" opacity="1" transform="matrix(1,0,0,1,0,0)" fill="#1b4571" class="undefined-text-1" data-fill-palette-color="quaternary" id="text-1"></path></svg></g></svg></g></svg></g></svg></g><g></g></svg></g></svg></g></svg></g></svg></g><defs></defs></svg><rect width="342.85155851775386" height="342.85155851775386" fill="none" stroke="none" visibility="hidden"></rect></g></svg></g></svg>